<svg xmlns="http://www.w3.org/2000/svg" width="198" height="55.36" viewBox="0 0 198 55.36">
  <g id="Groupe_2" data-name="Groupe 2" transform="translate(-1015.524 -1088.523)">
    <g id="Groupe_1" data-name="Groupe 1" transform="translate(1016.259 1088.523)">
      <path id="Tracé_1" data-name="Tracé 1" d="M1024.463,1109.264v11.205h-7.727v-31.946h12.517q5.693,0,8.676,2.824a9.993,9.993,0,0,1,2.982,7.614,10.492,10.492,0,0,1-1.333,5.309,9.241,9.241,0,0,1-3.954,3.66,13.926,13.926,0,0,1-6.371,1.333Zm8.585-10.3q0-4.2-4.654-4.2h-3.931v8.314h3.931Q1033.047,1103.073,1033.048,1098.961Z" transform="translate(-1016.736 -1088.523)" fill="#fff"/>
      <path id="Tracé_2" data-name="Tracé 2" d="M1108.606,1114.787h-11.975l-1.988,5.829h-8.134l11.7-31.72h8.9l11.7,31.72h-8.224Zm-1.988-5.874-3.976-11.748-4.022,11.748Z" transform="translate(-1044.178 -1088.669)" fill="#fff"/>
      <path id="Tracé_3" data-name="Tracé 3" d="M1219.752,1088.523l-7.636,31.946h-9.58l-5.106-21.372-5.151,21.372H1182.7l-7.636-31.946h8.4l4.112,23.135,5.6-23.135h8.45l5.6,23.135,4.157-23.135Z" transform="translate(-1079.005 -1088.523)" fill="#fff"/>
      <path id="Tracé_4" data-name="Tracé 4" d="M1261.6,1134.037a3.263,3.263,0,0,1,.994-2.508,3.693,3.693,0,0,1,2.62-.926,3.826,3.826,0,0,1,2.711.926,3.264,3.264,0,0,1,.994,2.508,3.336,3.336,0,0,1-.994,2.531,3.768,3.768,0,0,1-2.711.949,3.638,3.638,0,0,1-2.62-.949A3.334,3.334,0,0,1,1261.6,1134.037Z" transform="translate(-1113.042 -1105.073)" fill="#fff"/>
      <path id="Tracé_5" data-name="Tracé 5" d="M1156.375,1134.037a3.262,3.262,0,0,1,.994-2.508,3.693,3.693,0,0,1,2.621-.926,3.824,3.824,0,0,1,2.711.926,3.264,3.264,0,0,1,.994,2.508,3.336,3.336,0,0,1-.994,2.531,3.766,3.766,0,0,1-2.711.949,3.639,3.639,0,0,1-2.621-.949A3.334,3.334,0,0,1,1156.375,1134.037Z" transform="translate(-1071.655 -1105.073)" fill="#fff"/>
      <path id="Tracé_6" data-name="Tracé 6" d="M1054.144,1134.037a3.262,3.262,0,0,1,.994-2.508,3.693,3.693,0,0,1,2.621-.926,3.826,3.826,0,0,1,2.711.926,3.265,3.265,0,0,1,.994,2.508,3.337,3.337,0,0,1-.994,2.531,3.768,3.768,0,0,1-2.711.949,3.638,3.638,0,0,1-2.621-.949A3.334,3.334,0,0,1,1054.144,1134.037Z" transform="translate(-1031.448 -1105.073)" fill="#fff"/>
      <path id="Tracé_7" data-name="Tracé 7" d="M1317.017,1120.469h-7.727l-12.923-19.611v19.611h-7.727v-31.946h7.727l12.923,19.791v-19.791h7.727Z" transform="translate(-1123.674 -1088.523)" fill="#fff"/>
    </g>
    <text id="VIDÉO_GAME_DESIGN" data-name="VIDÉO GAME DESIGN" transform="translate(1015.524 1138.883)" fill="#fff" font-size="13" font-family="Poppins-ExtraLight, Poppins" font-weight="200" letter-spacing="0.353em"><tspan x="0" y="0">VIDÉO GAME DESIGN</tspan></text>
  </g>
</svg>
