<svg xmlns="http://www.w3.org/2000/svg" width="123.492" height="122.799" fill="#fff" xmlns:v="https://vecta.io/nano"><path d="M20.582 24.54a1.93 1.93 0 0 1-1.265.815 1.94 1.94 0 0 1-1.467-.339l.453-.509a1.34 1.34 0 0 0 1.873-.329 1.25 1.25 0 0 0 .057-1.849c-1.416-1.262-2.875 2.174-4.683.562-.364-.358-.562-.851-.545-1.362s.246-.99.632-1.323a1.88 1.88 0 0 1 2.547-.505l-.465.522a1.32 1.32 0 0 0-1.688.371 1.21 1.21 0 0 0-.06 1.8c1.389 1.238 2.889-2.161 4.677-.568a1.86 1.86 0 0 1-.066 2.714zm2.086-11.066a2.97 2.97 0 0 1 3.531-.369l-.584.478a2.24 2.24 0 0 0-2.591.325 2.49 2.49 0 0 0-.195 3.685c.392.582 1.012.971 1.706 1.071s1.399-.098 1.939-.546a2.25 2.25 0 0 0 .84-2.462l.584-.479a2.98 2.98 0 0 1-1.068 3.375c-.659.555-1.519.812-2.374.71a3.11 3.11 0 0 1-2.14-1.249 3.12 3.12 0 0 1 .352-4.539zm8.027-5.478c1.289-.752 2.3-.4 2.834.511.5.787.305 1.827-.446 2.38l2.809 1.528-.668.39-2.731-1.52-1.026.6 1.354 2.323-.557.325-3.241-5.561zm.273.469l-1.114.65 1.349 2.315 1.122-.654a1.31 1.31 0 0 0 .63-1.935c-.406-.699-1.048-.923-1.987-.376zm10.986 1.311A3.14 3.14 0 0 1 37.8 7.854c-.348-.794-.353-1.696-.014-2.494a3.14 3.14 0 0 1 1.806-1.719 3.14 3.14 0 0 1 4.155 1.923c.351.793.358 1.697.018 2.495s-.996 1.42-1.811 1.717zm-.2-.523c.663-.247 1.191-.763 1.453-1.42s.234-1.395-.077-2.03a2.5 2.5 0 0 0-3.33-1.629 2.5 2.5 0 0 0-1.379 3.441 2.5 2.5 0 0 0 3.332 1.638zm5.99-8.037l1.284 5.774 2.257-.5.115.513-2.887.642-1.4-6.286zM54.843 0l.6 5.884 2.3-.236.054.523-2.943.3-.657-6.407zm18.572 7.361a1.93 1.93 0 0 1-1.765-2.137l.666.142a1.34 1.34 0 0 0 1.213 1.465 1.25 1.25 0 0 0 1.635-.866c.4-1.854-3.311-1.423-2.806-3.79.131-.493.462-.909.914-1.147a1.83 1.83 0 0 1 1.463-.106 1.88 1.88 0 0 1 1.7 1.964l-.684-.147a1.32 1.32 0 0 0-1.157-1.283 1.21 1.21 0 0 0-1.591.837c-.389 1.818 3.307 1.441 2.807 3.782a1.86 1.86 0 0 1-2.395 1.286zm10.679-3.64c1.249.404 2.086 1.579 2.058 2.892l-.7-.273a2.24 2.24 0 0 0-1.557-2.095c-.654-.256-1.385-.224-2.014.089s-1.096.876-1.286 1.552c-.314.627-.347 1.358-.093 2.011s.773 1.169 1.428 1.42a2.25 2.25 0 0 0 2.556-.48l.7.273a2.98 2.98 0 0 1-3.462.73 3.11 3.11 0 0 1-1.75-4.193 3.12 3.12 0 0 1 4.12-1.926zm8.717 4.276c1.289.753 1.485 1.806.95 2.721a1.78 1.78 0 0 1-2.293.783l.052 3.2-.669-.39-.018-3.127-1.026-.6-1.357 2.323-.557-.325 3.249-5.561zm-.274.469l-1.114-.65-1.352 2.315 1.121.655a1.31 1.31 0 0 0 2-.4c.405-.703.283-1.371-.655-1.92zm4.252 10.201a3.14 3.14 0 0 1-.373-4.563c.519-.694 1.302-1.142 2.163-1.24a3.14 3.14 0 0 1 2.385.724 3.14 3.14 0 0 1 .373 4.563c-.517.696-1.3 1.147-2.162 1.245a3.13 3.13 0 0 1-2.386-.729zm.357-.434a2.5 2.5 0 0 0 3.679-.5 2.5 2.5 0 0 0-.224-3.7 2.5 2.5 0 0 0-3.674.5 2.5 2.5 0 0 0 .218 3.7zm9.942 1.226l-4.378 3.977 1.554 1.712-.388.353-1.988-2.19 4.767-4.329zm4.579 5.584l-4.808 3.435 1.342 1.88-.427.305-1.717-2.4 5.235-3.74zm2.779 19.768c-.22-.474-.239-1.017-.052-1.505s.562-.88 1.042-1.086l.2.65a1.34 1.34 0 0 0-.676 1.777 1.25 1.25 0 0 0 1.56 1c1.811-.57-.395-3.585 1.917-4.312.494-.129 1.019-.046 1.449.23s.725.719.813 1.221a1.88 1.88 0 0 1-.871 2.448l-.21-.668a1.32 1.32 0 0 0 .546-1.641 1.21 1.21 0 0 0-1.514-.972c-1.775.559.377 3.59-1.908 4.31a1.86 1.86 0 0 1-1.462-.229c-.435-.275-.737-.718-.834-1.223zm8.436 7.503c.266 1.287-.344 2.595-1.5 3.219l-.11-.748a2.24 2.24 0 0 0 1.054-2.389 2.49 2.49 0 0 0-3.059-2.063c-.7.037-1.353.368-1.796.912s-.636 1.25-.53 1.943a2.25 2.25 0 0 0 1.679 1.987l.111.747a2.98 2.98 0 0 1-2.345-2.653 3.11 3.11 0 0 1 2.785-3.593 3.12 3.12 0 0 1 3.711 2.638zm.578 9.705c-.025 1.492-.846 2.178-1.905 2.161a1.78 1.78 0 0 1-1.806-1.614l-2.763 1.613.013-.774 2.715-1.549.02-1.188-2.691-.049.011-.645 6.437.106zm-.543-.009l.021-1.289-2.68-.044-.021 1.3c-.018 1.05.545 1.529 1.328 1.542.812.007 1.334-.427 1.352-1.514zm-6.754 8.741a3.14 3.14 0 0 1 3.78-2.586c.86.108 1.638.566 2.149 1.267a3.15 3.15 0 0 1 .551 2.433 3.14 3.14 0 0 1-3.78 2.586c-.862-.105-1.641-.563-2.153-1.264s-.71-1.583-.547-2.436zm.554.095c-.127.696.046 1.414.477 1.975a2.51 2.51 0 0 0 1.784.973 2.5 2.5 0 0 0 3.1-2.028 2.5 2.5 0 0 0-2.252-2.947c-.684-.179-1.411-.061-2.003.325s-.994 1.004-1.106 1.702zm3.845 9.238l-5.614-1.846-.721 2.2-.5-.164.923-2.807 6.112 2.01zm-2.588 6.745l-5.364-2.491-.974 2.1-.476-.221 1.246-2.682 5.84 2.712zm-15.847 12.165c.304-.425.767-.71 1.283-.788a1.94 1.94 0 0 1 1.46.371l-.465.5a1.34 1.34 0 0 0-1.881.289 1.25 1.25 0 0 0-.1 1.849c1.39 1.293 2.924-2.112 4.7-.461a1.83 1.83 0 0 1-.145 2.685 1.88 1.88 0 0 1-2.559.449l.477-.512c.57.33 1.297.187 1.7-.334a1.21 1.21 0 0 0 .1-1.8c-1.362-1.269-2.938 2.1-4.691.467-.359-.369-.55-.869-.527-1.384a1.86 1.86 0 0 1 .648-1.331zm-2.338 11.031a2.97 2.97 0 0 1-3.538.289l.6-.465a2.24 2.24 0 0 0 2.6-.267 2.49 2.49 0 0 0 .278-3.678c-.379-.59-.99-.993-1.681-1.108s-1.4.066-1.951.5a2.25 2.25 0 0 0-.895 2.443l-.6.465a2.98 2.98 0 0 1 1.144-3.351c.672-.539 1.537-.777 2.389-.655s1.617.591 2.111 1.297a3.12 3.12 0 0 1-.457 4.53zm-8.14 5.305c-1.3.724-2.309.354-2.823-.572-.481-.799-.263-1.834.5-2.37l-2.775-1.588.676-.375 2.7 1.578 1.039-.575-1.3-2.352.563-.312 3.12 5.629zm-.264-.475l1.128-.625-1.3-2.343-1.136.629a1.31 1.31 0 0 0-.672 1.92c.394.715 1.03.951 1.98.424zm-10.951-1.549a3.14 3.14 0 0 1 4.111 2.018c.33.802.314 1.704-.043 2.494a3.14 3.14 0 0 1-1.845 1.678 3.14 3.14 0 0 1-4.11-2.017 3.13 3.13 0 0 1 .038-2.496c.358-.791 1.027-1.398 1.849-1.677zm.19.529a2.5 2.5 0 0 0-1.454 3.419 2.5 2.5 0 0 0 3.293 1.705 2.5 2.5 0 0 0 1.457-3.411c-.179-.685-.64-1.261-1.268-1.588a2.5 2.5 0 0 0-2.028-.125zm-6.131 7.9l-1.166-5.8-2.265.455-.1-.514 2.9-.583 1.269 6.309zm-7.128 1.064l-.48-5.891-2.3.187-.043-.523 2.945-.239.521 6.414zm-18.431-7.744a1.93 1.93 0 0 1 1.719 2.175l-.663-.157c.043-.354-.057-.711-.279-.991a1.34 1.34 0 0 0-.901-.499 1.25 1.25 0 0 0-1.653.83c-.436 1.845 3.28 1.494 2.723 3.851a1.83 1.83 0 0 1-2.4 1.2 1.88 1.88 0 0 1-1.655-2l.681.161c-.003.657.479 1.215 1.129 1.308a1.21 1.21 0 0 0 1.609-.8c.428-1.81-3.275-1.512-2.724-3.842a1.86 1.86 0 0 1 2.414-1.236zm-10.758 3.415a2.97 2.97 0 0 1-2-2.936l.7.288a2.24 2.24 0 0 0 1.513 2.129 2.49 2.49 0 0 0 3.34-1.573c.327-.621.376-1.351.135-2.011s-.749-1.186-1.399-1.45a2.25 2.25 0 0 0-2.568.426l-.7-.288a2.98 2.98 0 0 1 3.48-.657c.801.318 1.434.954 1.749 1.756s.283 1.699-.087 2.477a3.12 3.12 0 0 1-4.163 1.839zm-8.602-4.465c-1.271-.779-1.444-1.835-.891-2.738.457-.812 1.465-1.133 2.307-.734l.016-3.2.659.4-.047 3.123 1.012.621 1.4-2.292.55.337-3.359 5.498zm.284-.463l1.1.673 1.4-2.283-1.106-.678a1.31 1.31 0 0 0-2 .359c-.431.692-.319 1.362.607 1.93zm-4.047-10.294a3.14 3.14 0 0 1 .274 4.568c-.534.682-1.326 1.114-2.189 1.193s-1.72-.202-2.369-.776a3.14 3.14 0 0 1-.274-4.568 3.13 3.13 0 0 1 4.558-.417zm-.366.425a2.5 2.5 0 0 0-3.689.424 2.5 2.5 0 0 0 .144 3.7 2.5 2.5 0 0 0 3.683-.417 2.5 2.5 0 0 0-.143-3.707zm-9.919-1.439l4.462-3.878-1.516-1.745.4-.345 1.939 2.231-4.858 4.224zm-4.448-5.656l4.878-3.338-1.309-1.91.433-.3 1.669 2.439-5.311 3.635zM8.709 76.727a1.93 1.93 0 0 1-1.046 2.568l-.19-.654a1.34 1.34 0 0 0 .715-1.762 1.25 1.25 0 0 0-1.536-1.029c-1.822.53.315 3.591-2.01 4.267a1.83 1.83 0 0 1-2.23-1.5 1.88 1.88 0 0 1 .924-2.426l.2.672c-.573.321-.821 1.015-.582 1.627a1.21 1.21 0 0 0 1.491 1c1.786-.52-.3-3.6 2-4.264a1.86 1.86 0 0 1 2.264 1.501zm-8.27-7.665a2.97 2.97 0 0 1 1.568-3.184l.094.749a2.24 2.24 0 0 0-1.1 2.364c.085.698.461 1.327 1.035 1.732s1.293.549 1.978.395c.7-.022 1.358-.338 1.813-.872a2.48 2.48 0 0 0 .572-1.928 2.25 2.25 0 0 0-1.636-2.021l-.094-.749a2.98 2.98 0 0 1 2.287 2.7 3.11 3.11 0 0 1-2.86 3.531 3.12 3.12 0 0 1-3.657-2.717zM.062 59.36c.047-1.492.88-2.166 1.939-2.133a1.78 1.78 0 0 1 1.782 1.643l2.787-1.571-.024.774-2.739 1.507-.038 1.189 2.69.085-.021.645-6.438-.2zm.543.017l-.041 1.289 2.68.085.041-1.3c.034-1.05-.523-1.538-1.305-1.562-.811-.024-1.341.402-1.372 1.488zm6.939-8.599a3.14 3.14 0 0 1-1.375 2.08 3.13 3.13 0 0 1-2.457.42c-.857-.126-1.624-.6-2.12-1.31a3.14 3.14 0 0 1-.5-2.441 3.14 3.14 0 0 1 3.832-2.5 3.13 3.13 0 0 1 2.62 3.751zm-.55-.107a2.5 2.5 0 0 0-2.2-2.994 2.5 2.5 0 0 0-3.146 1.959 2.5 2.5 0 0 0 2.186 2.992 2.5 2.5 0 0 0 3.159-1.95zm-3.643-9.334l5.573 1.964.768-2.179.494.174-.982 2.787-6.067-2.139zm2.73-6.683l5.308 2.61 1.02-2.075.472.232-1.3 2.654-5.779-2.841z"/></svg>